# xmcd
#
# Track frame offsets:
#       151
#       9942
#       22655
#       41228
#       51689
#       62129
#       71707
#       89673
#       103506
#       115608
#       125758
#       140374
#       154699
#       181569
#
# Disc length: 2783 seconds
#
# Revision: 0
# Processed by: cddbd v1.4PL0 Copyright (c) Steve Scherf et al.
# Submitted via: CD-DA_X-Tractor v0.23
#
DISCID=ba0add0e
DTITLE=Various Artist - Earl Scruggs and Friends
DYEAR=2001
DGENRE=Bluegrass
TTITLE0=Elton John - Country Comfort
TTITLE1=Dwight Yoakam - Borrowed Love
TTITLE2=Billy Bob Thorton - Ring of Fire
TTITLE3=Gary Scruggs, Travis Tritt - True Love Never Dies
TTITLE4=Melissa Etheridge - The Angels
TTITLE5=Sting - Fill Her Up
TTITLE6=Various Artist - Foggy Mountain Breakdown
TTITLE7=Randy Scruggs - Somethin' Just Ain't Right
TTITLE8=Vince Gill, Rosanne Cash - I Found Love
TTITLE9=John Fogerty - Blue Ridge Mountain Blues
TTITLE10=Don Henley, Johnny Cash - Passin' Thru
TTITLE11=Marty Stuart - Foggy Mountain Rock/Special
TTITLE12=Earl Scruggs Extra #1
TTITLE13=Earl Scruggs Extra #2
EXTD=
EXTT0=
EXTT1=
EXTT2=
EXTT3=
EXTT4=
EXTT5=
EXTT6=
EXTT7=
EXTT8=
EXTT9=
EXTT10=
EXTT11=
EXTT12=
EXTT13=
PLAYORDER=
